<svg xmlns="http://www.w3.org/2000/svg" data-name="Layer 2" viewBox="0 0 64 64"><path fill="#424a4d" d="M38,8H26a1,1,0,0,0-1,1v4.45A3.55,3.55,0,0,0,28.55,17h6.9A3.55,3.55,0,0,0,39,13.45V9A1,1,0,0,0,38,8Z"/><path fill="#1f2526" d="M44.09,6.89,32.21,4.39a1,1,0,0,0-.42,0L19.91,6.89a1,1,0,0,0-.05,2L31.75,12a1.06,1.06,0,0,0,.5,0L44.14,8.84A1,1,0,0,0,44.09,6.89Z"/><rect width="58" height="34" x="3" y="23" fill="#0a51ad" rx="1"/><path fill="#1e7eeb" d="M60,23H32V57H60a1,1,0,0,0,1-1V24A1,1,0,0,0,60,23Z"/><path fill="#f08f1f" d="M56,20V49a1,1,0,0,1-1,1H42.72a19,19,0,0,0-8.5,2c-2.72,1.18-1.49,1.45-4.44,0a19,19,0,0,0-8.5-2H9a1,1,0,0,1-1-1V20a1,1,0,0,1,1-1H21.28c.24,0,.48,0,.72,0a22.53,22.53,0,0,1,10,2.86A22.19,22.19,0,0,1,42.72,19H55A1,1,0,0,1,56,20Z"/><path fill="#008abd" d="M22,19V36a1,1,0,0,1-1.55.83L18,35.2l-2.45,1.63A1,1,0,0,1,14,36V19C22,19,21.66,19,22,19Z"/><path fill="#ffd138" d="M55,19H42.72A22.19,22.19,0,0,0,32,21.88V53c.44,0,.77-.36,2.22-1a19,19,0,0,1,8.5-2H55a1,1,0,0,0,1-1V20A1,1,0,0,0,55,19Z"/><rect width="12" height="2" x="38" y="43" fill="#008abd"/><rect width="8.13" height="2" x="38" y="39" fill="#008abd"/><rect width="12" height="2" x="38" y="35" fill="#008abd"/><rect width="8.13" height="2" x="38" y="31" fill="#008abd"/><rect width="12" height="2" x="38" y="27" fill="#008abd"/><path fill="#31b6eb" d="M60,23H57V57h3a1,1,0,0,0,1-1V24A1,1,0,0,0,60,23Z"/><path fill="#003996" d="M4,57H7V23H4a1,1,0,0,0-1,1V56A1,1,0,0,0,4,57Z"/><path fill="#ffe37e" d="M55,19H52V50h3a1,1,0,0,0,1-1V20A1,1,0,0,0,55,19Z"/><path fill="#f26c24" d="M9,50h3V19H9a1,1,0,0,0-1,1V49A1,1,0,0,0,9,50Z"/></svg>