<svg xmlns="http://www.w3.org/2000/svg" width="48" height="48" viewBox="0 0 48 48"><g fill="#fff" transform="translate(8 -1013.362)"><g fill="#3a6c87" transform="matrix(1.92 0 0 1.92 -55.127 982.817)"><circle cx="37.045" cy="28.409" r="12.5" fill-rule="evenodd"/></g><path fill="#2f4b6c" style="line-height:normal;text-indent:0;text-align:start;text-decoration-line:none;text-decoration-style:solid;text-decoration-color:#000;text-transform:none;block-progression:tb;isolation:auto;mix-blend-mode:normal" d="m 26.443359,47.873047 c 0.780017,-0.07915 1.555687,-0.196482 2.324219,-0.351563 0.784153,-0.15905 1.559861,-0.357214 2.324219,-0.59375 0.764541,-0.236341 1.516782,-0.510772 2.253906,-0.822265 0.736987,-0.311432 1.457939,-0.659523 2.160156,-1.042969 0.702115,-0.383622 1.384608,-0.802113 2.044922,-1.253906 0.660555,-0.452215 1.298071,-0.937196 1.910157,-1.453125 0.612173,-0.51531 1.198191,-1.060914 1.755859,-1.634766 0.557726,-0.574122 1.086381,-1.175785 1.583984,-1.802734 0.49707,-0.626744 0.962494,-1.277948 1.394531,-1.951172 0.4322,-0.67304 0.830484,-1.367266 1.19336,-2.080078 0.363117,-0.713017 0.690348,-1.443747 0.980469,-2.189453 0.289767,-0.746037 0.542035,-1.506101 0.755859,-2.277344 0.214012,-0.770706 0.389361,-1.551628 0.525391,-2.339844 0.136037,-0.788952 0.232511,-1.584217 0.289062,-2.382812 C 47.979653,25.132402 47.999848,24.566292 48,24 47.9981,23.96484 48.000106,23.886711 47.998,23.851562 L 35.5625,11.423828 c 0.0073,-0.005 -0.009,0.0054 -0.002,-5e-6 l 12.431641,12.431641 c -0.0092,-0.46606 -0.03202,-0.931753 -0.06836,-1.396485 L 35.042969,9.578125 C 34.924225,9.37204 34.676751,9.2781144 34.451172,9.3535156 L 33.816406,8.71875 C 33.769907,8.5474799 33.636114,8.4136867 33.464844,8.3671875 L 32.150391,8.0136719 c -0.04832,-0.013263 -0.09836,-0.019189 -0.148438,-0.017578 -0.219121,0.00783 -0.407583,0.1574892 -0.464844,0.3691406 l 0,0.00195 -0.111328,0.4179687 c -0.07028,0.00601 -0.13947,0.017787 -0.208984,0.027344 l -0.353516,-0.3535156 -0.002,-0.00195 0,-0.00195 C 30.723422,8.2153956 30.417166,8.1331439 30.177734,8.2714844 L 29,8.9550781 c -0.239683,0.1379057 -0.321934,0.4441618 -0.183594,0.6835938 l 0.216797,0.3750001 c -0.07603,0.09 -0.146092,0.182597 -0.212891,0.279297 l -0.419921,-0.113281 c -0.266379,-0.07078 -0.539803,0.08734 -0.611329,0.353515 l -0.353515,1.314453 c -0.07203,0.267012 0.08636,0.541784 0.353515,0.613282 l 0.462891,0.46289 -0.373047,0.214844 c -0.238974,0.138576 -0.320308,0.444674 -0.18164,0.683594 L 28.376953,15 c 0.04397,0.0763 0.107298,0.139629 0.183594,0.183594 l 3.050781,3.050781 c 0.157329,0.238331 0.302566,0.48312 0.435547,0.736328 l -4.925781,-4.925781 c -0.03704,-0.204209 -0.196365,-0.364313 -0.400391,-0.402344 -0.275951,-0.067 -0.55684,-0.122715 -0.84375,-0.166016 l -0.0059,0 c -0.532857,-0.074 -1.055454,-0.112434 -1.56836,-0.115234 l 0,0.002 c -0.256453,0 -0.51034,0.0085 -0.761718,0.02539 -0.251379,0.01694 -0.500248,0.04233 -0.746094,0.08008 -0.981957,0.1525 -1.920067,0.471428 -2.8125,0.986328 -0.0013,7e-4 -0.0026,0 -0.0039,0 -0.321568,0.168175 -0.632202,0.355385 -0.931641,0.558594 -0.599291,0.406698 -1.151192,0.880724 -1.644531,1.414062 -0.246159,0.266117 -0.477888,0.545605 -0.69336,0.839844 l 0,0.002 c -0.2154,0.294248 -0.415807,0.601781 -0.597656,0.921875 l 0,0.002 c -0.181778,0.320107 -0.346827,0.652415 -0.492187,0.996094 -0.145879,0.344728 -0.272561,0.700238 -0.378907,1.066406 -0.106178,0.365593 -0.191972,0.740313 -0.255859,1.125 l 0,0.002 -3.414063,6.785157 0,0.002 c -0.167231,0.332729 0.07488,0.724962 0.447266,0.724609 l 0.277344,0 0.002,0.002 -0.279297,0 1.308594,1.308594 0,3.378906 0,0.002 c 0.0011,0.274607 0.22344,0.496948 0.498047,0.498046 l 0.002,0 0,0.002 4.144531,4.144531 0.142578,1.310547 0,0.002 c 0.02244,0.239265 0.211907,0.428732 0.451172,0.451172 z" color="#000" font-family="sans-serif" font-weight="400" transform="translate(-8 1013.362)" white-space="normal"/><path style="line-height:normal;text-indent:0;text-align:start;text-decoration-line:none;text-decoration-style:solid;text-decoration-color:#000;text-transform:none;block-progression:tb;isolation:auto;mix-blend-mode:normal" d="m 24.484375,0 0,0.00195313 a 0.50005,0.50005 0 0 0 -0.464844,0.36914062 l -0.111328,0.41992187 c -0.116895,0.01 -0.232235,0.0239219 -0.347656,0.0449219 l -0.216797,-0.375 A 0.50005,0.50005 0 0 0 22.660156,0.27734375 L 21.482422,0.95898438 A 0.50005,0.50005 0 0 0 21.298828,1.6425781 l 0.216797,0.375 c -0.07603,0.09 -0.146092,0.1825969 -0.212891,0.2792969 L 20.882812,2.1835938 a 0.50005,0.50005 0 0 0 -0.611328,0.3535156 l -0.353515,1.3144531 a 0.50005,0.50005 0 0 0 0.353515,0.6132813 l 0.419922,0.1113281 c 0.0092,0.1176 0.02409,0.2335094 0.04492,0.3496093 l -0.375,0.2167969 a 0.50005,0.50005 0 0 0 -0.18164,0.6835938 l 0.679687,1.1777343 A 0.50005,0.50005 0 0 0 21.542969,7.1875 l 0.373047,-0.2167969 c 0.0899,0.076 0.182267,0.1477438 0.279296,0.2148438 L 22.083984,7.6035156 A 0.50005,0.50005 0 0 0 22.4375,8.2167969 l 1.314453,0.3515625 a 0.50005,0.50005 0 0 0 0.611328,-0.3535156 l 0.111328,-0.4199219 c 0.117542,-0.01 0.233562,-0.025875 0.34961,-0.046875 l 0.216797,0.375 a 0.50005,0.50005 0 0 0 0.68164,0.1835937 l 1.179688,-0.6796875 a 0.50005,0.50005 0 0 0 0.18164,-0.6835937 l -0.214843,-0.375 c 0.07602,-0.09 0.146093,-0.1824969 0.21289,-0.2792969 L 27.5,6.4023438 A 0.50005,0.50005 0 0 0 28.113281,6.0488281 L 28.464844,4.734375 A 0.50005,0.50005 0 0 0 28.111328,4.1210938 L 27.691406,4.0097656 c -0.0092,-0.1176 -0.02412,-0.2335094 -0.04492,-0.3496094 l 0.375,-0.2167968 A 0.50005,0.50005 0 0 0 28.205078,2.7617188 L 27.525391,1.5820312 A 0.50005,0.50005 0 0 0 26.841797,1.3984375 l -0.375,0.2167969 c -0.0896,-0.076 -0.18262,-0.1460907 -0.279297,-0.2128906 L 26.300781,0.98242188 A 0.50005,0.50005 0 0 0 25.947266,0.37109375 L 24.632812,0.01757813 A 0.50005,0.50005 0 0 0 24.484375,0 Z m 0.373047,1.1132812 0.347656,0.09375 -0.06641,0.2519532 a 0.50005,0.50005 0 0 0 0.248047,0.5703125 c 0.254609,0.1346 0.485683,0.3122375 0.68164,0.5234375 a 0.50005,0.50005 0 0 0 0.617188,0.091797 l 0.222656,-0.1289062 0.181641,0.3125 -0.22461,0.1289062 a 0.50005,0.50005 0 0 0 -0.226562,0.578125 c 0.08396,0.2757 0.11917,0.5635625 0.107422,0.8515626 a 0.50005,0.50005 0 0 0 0.371094,0.5039062 l 0.251953,0.068359 -0.09375,0.3476562 -0.25,-0.066406 a 0.50005,0.50005 0 0 0 -0.572266,0.25 c -0.134495,0.2548 -0.310471,0.4855406 -0.521484,0.6816406 a 0.50005,0.50005 0 0 0 -0.0918,0.6152344 L 25.96875,7.0117188 25.65625,7.1933594 25.527344,6.96875 A 0.50005,0.50005 0 0 0 24.949219,6.7402344 c -0.275445,0.084 -0.56384,0.121075 -0.851563,0.109375 a 0.50005,0.50005 0 0 0 -0.501953,0.3710937 l -0.06836,0.2539063 -0.34961,-0.09375 0.06836,-0.2519532 a 0.50005,0.50005 0 0 0 -0.25,-0.5722656 c -0.254608,-0.1346 -0.483731,-0.3103844 -0.679688,-0.5214844 a 0.50005,0.50005 0 0 0 -0.617187,-0.09375 l -0.22461,0.1289063 -0.179687,-0.3125 0.222656,-0.1289063 a 0.50005,0.50005 0 0 0 0.228516,-0.578125 C 21.662084,4.7750813 21.625021,4.4873187 21.636719,4.1992188 A 0.50005,0.50005 0 0 0 21.267578,3.6953125 l -0.253906,-0.068359 0.09375,-0.3476562 0.251953,0.064453 a 0.50005,0.50005 0 0 0 0.570313,-0.2460938 c 0.134498,-0.2548 0.31242,-0.4874937 0.523437,-0.6835937 a 0.50005,0.50005 0 0 0 0.0918,-0.6152344 L 22.416016,1.5722656 22.726562,1.3945312 22.855469,1.6152344 A 0.50005,0.50005 0 0 0 23.435547,1.84375 c 0.275448,-0.084 0.561893,-0.1191219 0.849609,-0.1074219 a 0.50005,0.50005 0 0 0 0.503906,-0.3710937 l 0.06836,-0.2519532 z M 24.283203,2.7558594 C 23.57094,2.7143775 22.896367,3.1806187 22.705078,3.8945312 22.486684,4.7103313 22.977087,5.56255 23.792969,5.78125 c 0.81572,0.2188 1.668053,-0.2738437 1.886719,-1.0898438 0.218392,-0.8159 -0.274127,-1.6660656 -1.089844,-1.8847656 -0.101972,-0.02735 -0.204889,-0.044855 -0.306641,-0.050781 z m -0.166015,1.0019531 c 0.06952,-0.00972 0.142883,-0.00563 0.214843,0.013672 0.288057,0.077 0.458055,0.3737094 0.38086,0.6621094 -0.07729,0.2883999 -0.372463,0.4580593 -0.660157,0.3808593 -0.287918,-0.077 -0.460008,-0.3717562 -0.382812,-0.6601562 0.058,-0.21645 0.238694,-0.3673188 0.447266,-0.3964844 z m -7.332032,1.609375 c -0.512906,-0.00285 -1.01612,0.030169 -1.507812,0.1054687 l 0,0.00195 c -0.981957,0.1525 -1.920067,0.4714281 -2.8125,0.9863281 -0.0013,7e-4 -0.0026,0 -0.0039,0 -2.5725378,1.3454 -4.4830442,3.8482817 -4.9941411,6.9257817 L 4.0527344,20.173828 A 0.50005,0.50005 0 0 0 4.5,20.900391 l 1.3085938,0 0,4.689453 a 0.50005,0.50005 0 0 0 0.5,0.5 l 3.6953122,0 0.591797,5.457031 a 0.50005,0.50005 0 1 0 0.994141,-0.107422 l -0.640625,-5.904297 a 0.50005,0.50005 0 0 0 -0.498047,-0.445312 l -3.6425782,0 0,-4.689453 a 0.50005,0.50005 0 0 0 -0.5,-0.5 l -0.9960938,0 3.0605469,-6.087891 a 0.50005,0.50005 0 0 0 0.046875,-0.148438 c 0.4305939,-2.8258 2.1758351,-5.1046182 4.5214841,-6.3242182 a 0.50005,0.50005 0 0 0 0.01953,-0.013672 c 1.573069,-0.9088 3.277772,-1.1277157 5.255859,-0.8535157 0.254671,0.039 0.50586,0.086984 0.751953,0.1464844 a 0.50005,0.50005 0 1 0 0.234375,-0.9707031 c -0.275951,-0.067 -0.55684,-0.1227156 -0.84375,-0.1660156 a 0.50005,0.50005 0 0 0 -0.0059,0 c -0.532857,-0.0739 -1.055454,-0.1123844 -1.56836,-0.1152344 z m -0.03906,2.21875 a 0.50005,0.50005 0 0 0 -0.5,0.5 l 0,0.625 c -0.193325,0.064 -0.380077,0.1400688 -0.5625,0.2304687 L 15.244141,8.5019531 a 0.50005,0.50005 0 0 0 -0.707032,0 l -1.203125,1.203125 a 0.50005,0.50005 0 0 0 0,0.7070309 l 0.441407,0.441407 c -0.09063,0.1817 -0.168148,0.367946 -0.232422,0.560546 l -0.625,0 a 0.50005,0.50005 0 0 0 -0.5,0.5 l 0,1.703126 a 0.50005,0.50005 0 0 0 0.5,0.5 l 0.625,0 c 0.06382,0.193199 0.140143,0.3802 0.230469,0.5625 l -0.439454,0.439453 a 0.50005,0.50005 0 0 0 0,0.707031 l 1.203125,1.203125 a 0.50005,0.50005 0 0 0 0.707032,0 l 0.439453,-0.441406 c 0.182371,0.091 0.369125,0.169875 0.5625,0.234375 l 0,0.623046 a 0.50005,0.50005 0 0 0 0.5,0.5 l 1.699218,0 a 0.50005,0.50005 0 0 0 0.5,-0.5 l 0,-0.625 c 0.193326,-0.064 0.380077,-0.140068 0.5625,-0.230468 l 0.439454,0.439453 a 0.50005,0.50005 0 0 0 0.707031,0 l 1.203125,-1.203125 a 0.50005,0.50005 0 0 0 0,-0.707031 l -0.441406,-0.441407 c 0.09072,-0.182 0.168124,-0.367646 0.232422,-0.560546 l 0.625,0 a 0.50005,0.50005 0 0 0 0.5,-0.5 l 0,-1.703126 a 0.50005,0.50005 0 0 0 -0.5,-0.5 l -0.625,0 c -0.06378,-0.193199 -0.140209,-0.3802 -0.230469,-0.5625 l 0.439453,-0.439453 a 0.50005,0.50005 0 0 0 0,-0.7070309 l -1.203125,-1.203125 a 0.50005,0.50005 0 0 0 -0.707031,0 l -0.439454,0.4414063 c -0.182369,-0.091 -0.369124,-0.169875 -0.5625,-0.234375 l 0,-0.6230469 a 0.50005,0.50005 0 0 0 -0.5,-0.5 l -1.699218,0 z m 0.5,1 0.699218,0 0,0.4511719 a 0.50005,0.50005 0 0 0 0.388672,0.4863281 c 0.364639,0.083 0.714479,0.2268812 1.03125,0.4257813 a 0.50005,0.50005 0 0 0 0.619141,-0.068359 L 20.300781,9.5625 20.796875,10.058594 20.480469,10.375 a 0.50005,0.50005 0 0 0 -0.07031,0.617188 c 0.197989,0.3177 0.341775,0.667903 0.423828,1.033203 a 0.50005,0.50005 0 0 0 0.486328,0.388671 l 0.453126,0 0,0.703126 -0.451172,0 a 0.50005,0.50005 0 0 0 -0.486328,0.388671 c -0.08311,0.365 -0.22886,0.712297 -0.427735,1.029297 a 0.50005,0.50005 0 0 0 0.07031,0.619141 l 0.318359,0.318359 -0.496094,0.496094 -0.314453,-0.316406 a 0.50005,0.50005 0 0 0 -0.61914,-0.07031 c -0.317413,0.1981 -0.666282,0.341728 -1.03125,0.423828 a 0.50005,0.50005 0 0 0 -0.390626,0.488282 l 0,0.451171 -0.699218,0 0,-0.451171 a 0.50005,0.50005 0 0 0 -0.388672,-0.486329 c -0.36464,-0.083 -0.714478,-0.226881 -1.03125,-0.425781 a 0.50005,0.50005 0 0 0 -0.619141,0.06836 l -0.316406,0.318359 -0.496094,-0.496094 0.316407,-0.316406 a 0.50005,0.50005 0 0 0 0.07031,-0.617188 c -0.197978,-0.3176 -0.341768,-0.665949 -0.423828,-1.03125 a 0.50005,0.50005 0 0 0 -0.486328,-0.390624 l -0.453125,0 0,-0.703126 0.451172,0 a 0.50005,0.50005 0 0 0 0.486328,-0.388671 c 0.08311,-0.365 0.228858,-0.712297 0.427734,-1.029297 a 0.50005,0.50005 0 0 0 -0.07031,-0.619141 l -0.31836,-0.318359 0.496094,-0.496094 0.314453,0.3164062 a 0.50005,0.50005 0 0 0 0.619141,0.070313 c 0.31741,-0.1981001 0.666282,-0.3417282 1.03125,-0.4238282 a 0.50005,0.50005 0 0 0 0.390625,-0.4882812 l 0,-0.4511719 z m 6.988281,0.4960937 a 0.50005,0.50005 0 0 0 -0.375,0.8007813 c 1.243312,1.6954005 1.863106,3.8410905 1.591797,6.0878905 -0.0071,0.059 -0.01886,0.143225 -0.02734,0.203125 l -4.11914,9.00586 a 0.50005,0.50005 0 0 0 -0.04297,0.251953 l 0.52539,6.089843 a 0.50005,0.50005 0 1 0 0.996094,-0.08594 l -0.513672,-5.958985 4.09375,-8.953124 a 0.50005,0.50005 0 0 0 0.04102,-0.134766 c 0,0 0.02571,-0.188528 0.03906,-0.298828 0.302193,-2.5026 -0.389251,-4.907881 -1.777343,-6.8007815 A 0.50005,0.50005 0 0 0 24.234375,9.0820312 Z M 17.486328,10.96875 c -0.119004,0.0069 -0.238207,0.02662 -0.357422,0.05859 -0.953777,0.2556 -1.526899,1.251178 -1.271484,2.205078 0.255434,0.9538 1.249471,1.527184 2.203125,1.271484 0.953811,-0.2556 1.528918,-1.249025 1.273437,-2.203125 -0.223538,-0.83475 -1.014626,-1.380257 -1.847656,-1.332031 z m 0.21875,1.001953 c 0.30835,0.04333 0.576484,0.268166 0.66211,0.587891 0.114166,0.4264 -0.138586,0.866269 -0.564454,0.980468 -0.425844,0.114101 -0.864299,-0.139906 -0.978515,-0.566406 -0.114225,-0.4266 0.138552,-0.866269 0.564453,-0.980468 0.10649,-0.02855 0.213623,-0.03593 0.316406,-0.02149 z" color="#000" font-family="sans-serif" font-weight="400" overflow="visible" transform="translate(-.482 1021.361)" white-space="normal"/><path fill="#000" style="line-height:normal;text-indent:0;text-align:start;text-decoration-line:none;text-decoration-style:solid;text-decoration-color:#000;text-transform:none;block-progression:tb;isolation:auto;mix-blend-mode:normal" d="M 34.203125 10.644531 L 34.466797 10.908203 L 34.439453 10.923828 L 34.175781 10.660156 A 0.50005 0.50005 0 0 0 34.203125 10.644531 z " color="#000" font-family="sans-serif" font-weight="400" transform="translate(-8 1013.362)" white-space="normal"/></g></svg>