<?xml version="1.0" encoding="UTF-8"?><svg xmlns="http://www.w3.org/2000/svg" xmlns:xlink="http://www.w3.org/1999/xlink" width="64px" height="64px" viewBox="0 0 64 64" version="1.1"><title>upload</title><defs><path id="path-1" d="M.06 64V.04H64V64z"/></defs><g id="Page-1" stroke="none" stroke-width="1" fill="none" fill-rule="evenodd"><g id="upload"><mask id="mask-2" fill="#fff"><use xlink:href="#path-1"/></mask><path d="M48 30c0-8.837-7.164-16-16-16-7.498 0-13.773 5.165-15.508 12.126C11.687 26.854 8 30.991 8 36c0 5.523 4.477 10 10 10h8a2 2 0 0 0 2-2v-5.5a1.5 1.5 0 0 0-1.5-1.5h-3.061c-1.472 0-1.883-1.01-.914-2.245l7.713-9.829c.969-1.235 2.555-1.235 3.524 0l7.713 9.829c.969 1.235.558 2.245-.914 2.245H37.5a1.5 1.5 0 0 0-1.5 1.5V44a2 2 0 0 0 2 2h10a8 8 0 0 0 0-16" id="Fill-1" fill="#FFFFFE" mask="url(#mask-2)"/><path d="M48 46H38a2 2 0 0 1-2-2v-5.5a1.5 1.5 0 0 1 1.5-1.5h3.061c1.472 0 1.883-1.01.914-2.245l-7.713-9.829c-.969-1.235-2.555-1.235-3.524 0l-7.713 9.829c-.969 1.235-.558 2.245.914 2.245H26.5a1.5 1.5 0 0 1 1.5 1.5V44a2 2 0 0 1-2 2h-8c-5.523 0-10-4.477-10-10 0-5.009 3.687-9.146 8.492-9.874C18.227 19.165 24.502 14 32 14c8.836 0 16 7.163 16 16a8 8 0 0 1 0 16zM32 0C14.327 0 0 14.327 0 32c0 17.673 14.327 32 32 32 17.673 0 32-14.327 32-32C64 14.327 49.673 0 32 0z" id="Fill-3" fill="#4C5665" mask="url(#mask-2)"/></g></g><metadata><rdf:RDF xmlns:rdf="http://www.w3.org/1999/02/22-rdf-syntax-ns#" xmlns:rdfs="http://www.w3.org/2000/01/rdf-schema#" xmlns:dc="http://purl.org/dc/elements/1.1/"><rdf:Description about="https://iconscout.com/legal#licenses" dc:title="upload" dc:description="upload" dc:publisher="Iconscout" dc:date="2017-09-25" dc:format="image/svg+xml" dc:language="en"><dc:creator><rdf:Bag><rdf:li>Elegant Themes</rdf:li></rdf:Bag></dc:creator></rdf:Description></rdf:RDF></metadata></svg>